# xmcd
#
# Track frame offsets: 
#        183
#        15313
#        36445
#        63290
#        77930
#        97623
#        119673
#        140863
#        154558
#        168225
#
# Disc length: 2469 seconds
#
# Revision: 3
# Processed by: cddbd v1.5.2PL0 Copyright (c) Steve Scherf et al.
# Submitted via: ExactAudioCopy v0.99pb4
#
DISCID=7909a30a
DTITLE=Peg Leg Sam featuring Louisiana Red - Joshua
DYEAR=1900
DGENRE=Blues
TTITLE0=Joshua fit the battle of Jericho
TTITLE1=Navaho trail
TTITLE2=John Henry
TTITLE3=Going train blues
TTITLE4=Mr. Ditty Wa Ditty
TTITLE5=Strollin'
TTITLE6=I got a home
TTITLE7=Dog chase
TTITLE8=Early in the morning
TTITLE9=Poor boy
EXTD=
EXTT0=
EXTT1=
EXTT2=
EXTT3=
EXTT4=
EXTT5=
EXTT6=
EXTT7=
EXTT8=
EXTT9=
PLAYORDER=
